<svg xmlns="http://www.w3.org/2000/svg" viewBox="0 0 680 524"><defs><style>.cls-1{fill:#bfbfbf;}.cls-2{fill:#919191;opacity:0.5;}.cls-3{fill:#8f8f8f;}.cls-4{fill:#1b1c2b;}</style></defs><title>miniplanet</title><g id="Moon"><circle class="cls-1" cx="344.5" cy="245.5" r="62.5"/><path class="cls-2" d="M307.37,246.07A73.06,73.06,0,0,1,343.5,183a62.41,62.41,0,0,0-2.3,124.74A73,73,0,0,1,307.37,246.07Z"/></g><g id="Pattern"><path class="cls-3" d="M432.22,204.24H351.29a8.49,8.49,0,0,0,0,17h80.93a8.49,8.49,0,0,0,0-17Z"/><path class="cls-3" d="M321.81,274.24H285.7a3.79,3.79,0,0,0,0,7.57h36.11a3.79,3.79,0,0,0,0-7.57Z"/><path class="cls-3" d="M360.81,289.24H324.7a3.79,3.79,0,0,0,0,7.57h36.11a3.79,3.79,0,0,0,0-7.57Z"/><path class="cls-3" d="M409.22,234.24H328.29a8.49,8.49,0,0,0,0,17h80.93a8.49,8.49,0,0,0,0-17Z"/></g><g id="Background"><path class="cls-4" d="M487,128H96V363H583V128ZM344.5,308A62.5,62.5,0,1,1,407,245.5,62.5,62.5,0,0,1,344.5,308Z"/></g></svg>