<svg xmlns="http://www.w3.org/2000/svg" viewBox="0 0 680 524"><defs><style>.cls-1{fill:#bfbfbf;}.cls-2{fill:#919191;opacity:0.5;}.cls-3{fill:#8f8f8f;}.cls-4{fill:#1b1c2b;}</style></defs><title>miniplanet</title><g id="Moon"><circle class="cls-1" cx="302.5" cy="262.5" r="62.5"/><path class="cls-2" d="M265.37,263.07A73.06,73.06,0,0,1,301.5,200a62.41,62.41,0,0,0-2.3,124.74A73,73,0,0,1,265.37,263.07Z"/></g><g id="Pattern"><path class="cls-3" d="M369.62,221.24H307.38a6.53,6.53,0,0,0,0,13h62.24a6.53,6.53,0,0,0,0-13Z"/><path class="cls-3" d="M279.81,291.24H243.7a3.79,3.79,0,0,0,0,7.57h36.11a3.79,3.79,0,0,0,0-7.57Z"/><path class="cls-3" d="M318.81,306.24H282.7a3.79,3.79,0,0,0,0,7.57h36.11a3.79,3.79,0,0,0,0-7.57Z"/><path class="cls-3" d="M348.45,251.24h-63.9a6.7,6.7,0,0,0,0,13.4h63.9a6.7,6.7,0,0,0,0-13.4Z"/></g><g id="Background"><path class="cls-4" d="M541,145H54V380H626V145ZM302.5,325A62.5,62.5,0,1,1,365,262.5,62.5,62.5,0,0,1,302.5,325Z"/></g></svg>