<svg xmlns="http://www.w3.org/2000/svg" viewBox="0 0 680 524"><defs><style>.cls-1{fill:#f9e959;}.cls-2{fill:#f9c700;opacity:0.5;}.cls-3{fill:#43b2e6;}.cls-4{fill:#1b1c2b;}</style></defs><title>planet1</title><g id="Moon"><circle class="cls-1" cx="345.5" cy="261.5" r="93.5"/><path class="cls-2" d="M290,262.5A109.46,109.46,0,0,1,344.13,168a93.5,93.5,0,0,0-3.44,186.86A109.4,109.4,0,0,1,290,262.5Z"/></g><g id="Pattern"><path class="cls-3" d="M467.22,231.24H386.29a8.49,8.49,0,0,0,0,17h80.93a8.49,8.49,0,0,0,0-17Z"/><path class="cls-3" d="M389.81,210.24H353.7a3.79,3.79,0,0,0,0,7.57h36.11a3.79,3.79,0,0,0,0-7.57Z"/><path class="cls-3" d="M361.8,310.61H262.2c-5.65.1-10.2,3.89-10.2,8.54s4.55,8.44,10.2,8.55h99.6c5.65-.11,10.2-3.89,10.2-8.55S367.45,310.71,361.8,310.61Z"/><path class="cls-3" d="M444.22,261.24H363.29a8.49,8.49,0,0,0,0,17h80.93a8.49,8.49,0,0,0,0-17Z"/></g><g id="Background"><path class="cls-4" d="M608.76,87v-.28h-527V87H0V437H680V87ZM345.5,355A93.5,93.5,0,1,1,439,261.5,93.5,93.5,0,0,1,345.5,355Z"/></g></svg>