<svg xmlns="http://www.w3.org/2000/svg" viewBox="0 0 680 524"><defs><style>.cls-1,.cls-2{fill:#fff;}.cls-1{opacity:0.15;}.cls-3{fill:#1b1c2b;}</style></defs><title>planet5</title><g id="Moon"><circle cx="345.5" cy="244.5" r="93.5"/><path class="cls-1" d="M290,245.5A109.46,109.46,0,0,1,344.13,151a93.5,93.5,0,0,0-3.44,186.86A109.4,109.4,0,0,1,290,245.5Z"/></g><g id="Pattern"><path class="cls-2" d="M460.22,207.24H379.29a8.49,8.49,0,0,0,0,17h80.93a8.49,8.49,0,0,0,0-17Z"/><path class="cls-2" d="M426.81,296.24H390.7a3.79,3.79,0,0,0,0,7.57h36.11a3.79,3.79,0,0,0,0-7.57Z"/><path class="cls-2" d="M340.81,273.24H304.7a3.79,3.79,0,0,0,0,7.57h36.11a3.79,3.79,0,0,0,0-7.57Z"/><path class="cls-2" d="M336.5,296.45h-83c-4.71.09-8.5,3.24-8.5,7.12s3.79,7,8.5,7.12h83c4.71-.08,8.5-3.24,8.5-7.12S341.21,296.54,336.5,296.45Z"/><path class="cls-2" d="M437.22,237.24H356.29a8.49,8.49,0,0,0,0,17h80.93a8.49,8.49,0,0,0,0-17Z"/></g><g id="Background"><path class="cls-3" d="M608.76,70v-.28H108V69H1V419H81.71v1H680V70ZM345.5,338A93.5,93.5,0,1,1,439,244.5,93.5,93.5,0,0,1,345.5,338Z"/></g></svg>