<svg xmlns="http://www.w3.org/2000/svg" viewBox="0 0 680 524"><defs><style>.cls-1{fill:#c9882f;}.cls-2{fill:#c9752f;opacity:0.5;}.cls-3{fill:#c6332a;}.cls-4{fill:#1b1c2b;}</style></defs><title>planet3</title><g id="Moon"><circle class="cls-1" cx="339.5" cy="262.5" r="93.5"/><path class="cls-2" d="M284,263.5A109.46,109.46,0,0,1,338.13,169a93.5,93.5,0,0,0-3.44,186.86A109.4,109.4,0,0,1,284,263.5Z"/></g><g id="Pattern"><path class="cls-3" d="M440.35,248.71h-74.7a7.83,7.83,0,0,0,0,15.66h74.7a7.83,7.83,0,0,0,0-15.66Z"/><path class="cls-3" d="M360.37,277.58H295.63a6.79,6.79,0,0,0,0,13.57h64.74a6.79,6.79,0,0,0,0-13.57Z"/><path class="cls-3" d="M347,176.62H269A8.18,8.18,0,0,0,269,193h78a8.18,8.18,0,0,0,0-16.35Z"/><path class="cls-3" d="M322.87,212.4H275.82a4.93,4.93,0,0,0,0,9.86h47.05a4.93,4.93,0,0,0,0-9.86Z"/><path class="cls-3" d="M319.6,304.8H296.21a2.45,2.45,0,0,0,0,4.9H319.6a2.45,2.45,0,0,0,0-4.9Z"/><path class="cls-3" d="M439.43,321.89H365.57a7.75,7.75,0,0,0,0,15.49h73.86a7.75,7.75,0,0,0,0-15.49Z"/></g><g id="Background"><path class="cls-4" d="M553,113v.25H117V113H10V411h99.25v.25h462V411H660V113ZM340.25,355.75a93.5,93.5,0,1,1,93.5-93.5A93.5,93.5,0,0,1,340.25,355.75Z"/></g></svg>