<svg xmlns="http://www.w3.org/2000/svg" viewBox="0 0 680 524"><defs><style>.cls-1{fill:#c1c1c1;}.cls-2{fill:#919191;opacity:0.5;}.cls-3{fill:#80aca9;}.cls-4{fill:#1b1c2b;}</style></defs><title>planet4</title><g id="Moon"><circle class="cls-1" cx="346.5" cy="261.5" r="93.5"/><path class="cls-2" d="M291,262.5A109.46,109.46,0,0,1,345.13,168a93.5,93.5,0,0,0-3.44,186.86A109.4,109.4,0,0,1,291,262.5Z"/></g><g id="Pattern"><path class="cls-3" d="M468.22,231.24H387.29a8.49,8.49,0,0,0,0,17h80.93a8.49,8.49,0,0,0,0-17Z"/><path class="cls-3" d="M390.81,210.24H354.7a3.79,3.79,0,0,0,0,7.57h36.11a3.79,3.79,0,0,0,0-7.57Z"/><path class="cls-3" d="M361.61,310.61H250.39c-6.31.12-11.39,4.34-11.39,9.54s5.08,9.42,11.39,9.54H361.61c6.31-.12,11.39-4.34,11.39-9.54S367.92,310.73,361.61,310.61Z"/><path class="cls-3" d="M334.61,230.61H223.39c-6.31.12-11.39,4.34-11.39,9.54s5.08,9.42,11.39,9.54H334.61c6.31-.12,11.39-4.34,11.39-9.54S340.92,230.73,334.61,230.61Z"/><path class="cls-3" d="M445.22,261.24H364.29a8.49,8.49,0,0,0,0,17h80.93a8.49,8.49,0,0,0,0-17Z"/></g><g id="Background"><path class="cls-4" d="M573,85v.72H115V85H8V436H680V85ZM346.5,354A93.5,93.5,0,1,1,440,260.5,93.5,93.5,0,0,1,346.5,354Z"/></g></svg>