<svg xmlns="http://www.w3.org/2000/svg" viewBox="0 0 680 524"><defs><style>.cls-1{fill:#f9e959;}.cls-2{fill:#f9c700;opacity:0.5;}.cls-3{fill:#43b2e6;}.cls-4{fill:#1b1c2b;}</style></defs><title>planet1</title><g id="Moon"><circle class="cls-1" cx="345.5" cy="265.5" r="93.5"/><path class="cls-2" d="M290,266.5A109.46,109.46,0,0,1,344.13,172a93.5,93.5,0,0,0-3.44,186.86A109.4,109.4,0,0,1,290,266.5Z"/></g><g id="Pattern"><path class="cls-3" d="M467.22,235.24H386.29a8.49,8.49,0,0,0,0,17h80.93a8.49,8.49,0,0,0,0-17Z"/><path class="cls-3" d="M389.81,214.24H353.7a3.79,3.79,0,0,0,0,7.57h36.11a3.79,3.79,0,0,0,0-7.57Z"/><path class="cls-3" d="M360.61,314.61H249.39c-6.31.12-11.39,4.34-11.39,9.54s5.08,9.42,11.39,9.54H360.61c6.31-.12,11.39-4.34,11.39-9.54S366.92,314.73,360.61,314.61Z"/><path class="cls-3" d="M444.22,265.24H363.29a8.49,8.49,0,0,0,0,17h80.93a8.49,8.49,0,0,0,0-17Z"/></g><g id="Background"><path class="cls-4" d="M608.76,91v-.28h-527V91H0V441H680V91ZM345.5,359A93.5,93.5,0,1,1,439,265.5,93.5,93.5,0,0,1,345.5,359Z"/></g></svg>