<svg xmlns="http://www.w3.org/2000/svg" viewBox="0 0 680 524"><defs><style>.cls-1{fill:#a8e0fc;}.cls-2{fill:#93cefc;opacity:0.5;}.cls-3{fill:#ffeb34;}.cls-4{fill:#1b1c2b;}</style></defs><title>planet2</title><g id="Moon"><circle class="cls-1" cx="342.5" cy="265.5" r="93.5"/><path class="cls-2" d="M287,266.5A109.46,109.46,0,0,1,341.13,172a93.5,93.5,0,0,0-3.44,186.86A109.4,109.4,0,0,1,287,266.5Z"/></g><g id="Pattern"><path class="cls-3" d="M455.35,224.71h-74.7a7.83,7.83,0,0,0,0,15.66h74.7a7.83,7.83,0,0,0,0-15.66Z"/><path class="cls-3" d="M458.37,198.58H393.63a6.79,6.79,0,0,0,0,13.57h64.74a6.79,6.79,0,0,0,0-13.57Z"/><path class="cls-3" d="M344,245.62H266A8.18,8.18,0,0,0,266,262h78a8.18,8.18,0,0,0,0-16.35Z"/><path class="cls-3" d="M291.87,283.4H244.82a4.93,4.93,0,0,0,0,9.86h47.05a4.93,4.93,0,0,0,0-9.86Z"/><path class="cls-3" d="M320.69,307.94H273.64a4.94,4.94,0,0,0,0,9.87h47.05a4.94,4.94,0,0,0,0-9.87Z"/><path class="cls-3" d="M437.43,297.89H363.57a7.75,7.75,0,0,0,0,15.49h73.86a7.75,7.75,0,0,0,0-15.49Z"/></g><g id="Background"><path class="cls-4" d="M672,116H573v.25H112V116H13V414h98.25v.25h462V414H672ZM342.25,358.75a93.5,93.5,0,1,1,93.5-93.5A93.5,93.5,0,0,1,342.25,358.75Z"/></g></svg>